<svg width="30" height="65" fill="none" xmlns="http://www.w3.org/2000/svg"><path d="M23.114 63.019l.636-10.385 1.755-2.938s-3.996 1.602-10.685 1.602c-6.69 0-10.626-1.572-10.626-1.572l1.968 3.204.696 10.089c0 1.081 3.639 1.958 8.128 1.958 4.489 0 8.128-.877 8.128-1.958zm-2.006-48.497l1.335-5.17 7.39-7.623L27.885.102l-7.824 8.12-1.55 6.178a106.073 106.073 0 00-3.5-.057c-8.24 0-14.92.92-14.92 2.056 0 1.135 6.68 2.056 14.92 2.056s14.921-.92 14.921-2.056c0-.836-3.623-1.556-8.824-1.877" fill="#D34A47"/><path d="M20.331 17.418s-.289.063-1.139.067c-.85.003-1.454-.005-1.695-.22a.368.368 0 01-.1-.25c.001-.148.108-.234.244-.289l.129.198c-.056.019-.088.041-.088.065 0 .112.87.19 1.535.18.666-.007 1.47-.06 1.47-.171 0-.034-.06-.065-.166-.09l.128-.197c.172.053.323.154.323.33-.002.298-.39.343-.64.377" fill="#fff"/><path d="M29.818 1.744c.186-.21-.096-.749-.63-1.202-.533-.453-1.117-.65-1.303-.44-.186.21.096.749.63 1.202.534.453 1.117.65 1.303.44zm-7.06 35.908c-.175-1.652 3.686-4.044 2.695-4.12-2.133.119-3.195 2.45-4.268 4.891-.393.895-1.74 4.71-2.622 4.24-.882-.469 1.144-3.606 1.712-5.47-.655.472-3.059 2.302-3.678.588-.996.829-3.124 1.278-2.884-.9-.53.92-1.719 2.204-3.146 1.67-1.875-.7 1.086-6.552 1.822-6.257.736.295-.149 1.628-.38 2.146-.51 1.14-1.099 2.572-.705 2.865.673.502 2.507-1.9 2.548-1.953.343-.444 1.32-3.35 2.107-3.016.788.334-1.964 4.17-.935 4.93.207.154 1.056-.094 1.573-.642.334-.354.219-1.139 1.333-3.742 1.114-2.604 2.106-5.846 2.87-5.6.764.248.134 1.912-.14 2.532-1.285 2.912-3.51 7.722-2.46 7.358 1.048-.364 1.594-.385 2.621-1.563s.98-3.119 1.664-3.077c.685.041.57.663.404 1.137.674-.756 3.193-2.347 3.802-.771.72 1.866-3.605 4.561-2.527 4.424 1.052-.134 2.755-1.192 3.482-2.153l2.002-17.643s-2.014 1.634-14.83 1.634C2 19.16.193 17.56.193 17.56L1.9 33.664c.905-2.52 3.053-7.619 6.44-7.448 1.54.078 3.596 2.986 1.835 3.084-.746.042-.822-1.451-1.705-1.67-.637-.159-1.524.35-2.097.9-1.143 1.096-3.602 5.423-3.277 7.58.414 2.75 3.872-.955 4.457-2.056.412-.775.69-3.071 1.591-2.83.902.24-.078 2.61-.731 4.706-.734 2.353-1.12 4.835-2.04 4.55-.92-.286.579-3.323.524-3.856-.864.782-2.457 2.762-4.495 1.782l1.058 10s2.814 2.18 11.289 2.18S26.14 48.44 26.14 48.44l1.315-11.582c-1.076 1.026-4.48 2.849-4.697.794" fill="#D34A47"/></svg>