<svg width="211" height="65" fill="none" xmlns="http://www.w3.org/2000/svg"><path fill-rule="evenodd" clip-rule="evenodd" d="M202.141 4.804L211 4.87s-16.471 30.255-17.816 32.721c-.437.798-1.101 1.66-1.437 2.727-.851 2.684-1.724 8.57-1.724 8.57l-8.106.054s1.261-6.135 1.209-9.403c-.046-2.855-1.121-5.707-1.724-8.57-.61-2.898-1.437-8.57-1.437-8.57h8.334l1.149 6.233 12.693-23.828z" fill="#1A1918"/><path fill-rule="evenodd" clip-rule="evenodd" d="M185.364 11.184c1.635 1.337 2.638 8.707 2.638 8.707s-8.554.17-13.21.17h-4.023l-4.885 28.827h-7.471s4.649-31.327 5.747-37.006c.356-1.839 2.437-1.524 5.951-1.524h5.612c3.624 0 7.86-.626 9.641.826zm-34.782 14.04s.233-1.85-.79-3.993c-.873-1.827-1.681-2.252-3.98-2.349-6.491-.276-6.365 6.244-6.365 6.244l11.135.098zm7.041-7.468c.951 4.652-.862 15.582-.862 15.582s-9.469-.215-14.656 0c-1.612.066-3.543-.238-4.023.779-.675 1.425.247 3.619 1.029 4.546.899 1.067 2.652 1.188 3.282 1.297 4.209.725 13.02.187 13.02.187l-1.526 9.161s-12.451.846-18.678-1.168c-1.23-.397-2.383-1.2-3.161-2.337-.213-.312-.397-.736-.598-1.102-.161-.293-.629-1.255-.839-2.015-1.423-5.138.166-14.981 1.724-20.255.181-.612.408-1.387.647-2.045.298-.822.551-1.75.79-2.24.16-.339.359-.557.526-.877.192-.377.416-.744.623-1.07.575-.905 1.227-1.544 2.012-2.338 2.594-2.633 7.29-4.678 12.931-3.895 2.124.296 5.331 1.324 6.897 4.285.419.79.626 2.36.862 3.505zm-34.268-7.433l7.244-.058s-4.037 25.963-6.095 38.623h-8.333c-5.825 0-11.012.978-13.219-4.675-2.141-5.488-.098-14.514.862-20.645.679-4.34 2.107-13.21 2.107-13.21l7.506-.093s-2.121 13.81-3.003 20.704c-.316 2.47-.968 4.795-.288 6.622.647 1.738 1.552 1.862 4.311 1.948.873.027 3.735 0 3.735 0l5.173-29.216zM89.447 29.021c.758-3.654 1.864-7.615 1.724-10.907-.153-3.521-2.33-6.727-3.736-7.4-4.233-2.027-8.195.806-9.77 3.115-2.038 2.992-2.728 6.486-3.449 11.297-.537 3.572-.977 7.342 0 10.128 1.73 4.924 7.124 3.849 12.931 3.895.863-3.131 1.575-6.65 2.3-10.128zm10.057-14.413c.828 8.157-2.347 17.16-4.534 24.99 2.23.272 4.184-.043 4.325.182.146.293-1.495 9.345-2.067 9.368-1.77.063-7.635.13-10.08.13-7.98 0-15.446.704-19.253-4.675-1.546-2.185-2.615-5.933-2.874-8.57-.431-4.402.109-9.248.862-13.244.681-3.608 1.554-7.012 2.874-10.128C72.11 4.726 77.944-1.164 87.722.196c1.897.265 4.621 1.39 6.322 2.726.118.094.53.538.624.616 2.299 1.983 4.394 6.716 4.836 11.07zM64.195 10.37c-.483 2.98-.965 6.358-1.474 9.303h-8.046c.623-3.264 1.1-6.51 1.724-9.35 2.575 0 4.969.047 7.796.047zM54.388 22.4h7.758c-1.014 7.611-3.023 19.89-4.598 28.435-.985 5.349-1.643 9.252-4.31 12.076-.239.253-.376.133-.575.39-.491.635-2.764 1.371-4.023 1.558-2.046.3-4.359.039-6.873-.031.658-3.26 1.402-7.175 1.988-10.097 6.13 1.005 6.285-6.848 7.471-14.413.687-4.37 2.768-16.166 3.162-17.919z" fill="#1A1918"/><path fill-rule="evenodd" clip-rule="evenodd" d="M36.284 42.266l-.166.584c-2.834 7.479-7.854 12.068-15.015 12.27-3.348.094-6.538-1.07-8.621-2.337-4.497-2.738-8.28-7.817-10.345-13.244-2.963-7.779-3.497-18.6 2.664-26.683.095 0-.747 1.753-.653 1.753l-.17.748c-4.439 18.841 9.24 34.988 22.536 33.141 3.195-.443 7.27-2.816 9.77-6.232z" fill="#21609B"/><path fill-rule="evenodd" clip-rule="evenodd" d="M28.238 34.475c3.345.031 6.84-2.088 8.908-5.064-1.81 6.23-7.051 10.233-14.08 8.96-5.885-1.068-11.492-9.096-12.07-17.14-.422-5.855 1.084-9.349 3.564-13.587-.862 2.217-1.184 3.926-1.265 5.017-.942 12.664 7.463 21.748 14.943 21.814z" fill="#21609B"/><path fill-rule="evenodd" clip-rule="evenodd" d="M36.81 18.746c-.52 1.616-3.514 4.67-4.836 5.052-5.235 1.511-8.589-1.854-10.345-5.684-.261-.572-.744-2.134-.83-2.532-.681-3.139-.368-7.887 1.664-10.346-.612 2.338-.701 5.053-.38 6.817.196 1.068.79 2.93 1.386 4.102 1.083 2.135 1.77 2.653 3.16 3.787.627.51 1.3.92 1.59 1.032 1.319.526 4.103 1.913 8.592-2.228z" fill="#21609B"/></svg>