<svg width="20" height="20" fill="none" xmlns="http://www.w3.org/2000/svg"><path d="M16.667 9.166h1.666c0-4.275-3.227-7.5-7.508-7.5v1.667c3.385 0 5.842 2.453 5.842 5.833z" fill="#000"/><path d="M10.834 6.667c1.752 0 2.5.747 2.5 2.5H15C15 6.479 13.521 5 10.834 5v1.667zm2.851 4.535a.834.834 0 00-1.159.036l-1.994 2.051c-.48-.092-1.445-.393-2.438-1.383C7.1 10.91 6.799 9.944 6.71 9.467l2.05-1.995a.833.833 0 00.035-1.159L5.716 2.927a.833.833 0 00-1.16-.072L2.75 4.405a.833.833 0 00-.242.542c-.013.208-.25 5.143 3.576 8.971 3.338 3.338 7.52 3.582 8.671 3.582.169 0 .272-.005.3-.007a.827.827 0 00.54-.242l1.55-1.81a.833.833 0 00-.072-1.159l-3.387-3.08z" fill="#000"/></svg>