<svg width="100" height="65" fill="none" xmlns="http://www.w3.org/2000/svg"><path d="M86.062 37.366c-3.496.017-6.524.745-9.063 1.829-.938-1.61-1.875-3.015-2.031-4.065-.176-1.22-.39-1.965-.176-3.422.215-1.456 1.191-3.523 1.191-3.692-.02-.153-.215-.898-2.226-.915-2.012-.017-3.75.339-3.946.796a17.505 17.505 0 00-.84 2.592c-.352 1.592-4.024 7.232-6.114 10.196-.684-1.151-1.27-2.168-1.387-2.98-.175-1.22-.39-1.966-.175-3.422.214-1.457 1.191-3.523 1.191-3.693-.02-.152-.215-.897-2.226-.914-2.013-.017-3.75.338-3.946.796-.196.457-.41 1.541-.84 2.591-.41 1.05-5.294 10.468-6.563 12.924a49.646 49.646 0 01-1.622 2.93c-.41.678-.02.051-.058.119l-.547.898v.017c-.274.423-.567.83-.703.83-.098 0-.294-1.135.039-2.693.722-3.27 2.48-8.368 2.46-8.554 0-.085.333-.983-1.132-1.44-1.426-.457-1.934.305-2.051.305-.117 0-.215.271-.215.271s1.582-5.742-3.028-5.742c-2.89 0-6.875 2.727-8.848 5.217-1.25.593-3.907 1.846-6.72 3.184-1.074.509-2.187 1.05-3.242 1.542l-.215-.204c-5.586-5.166-15.919-8.825-15.49-15.77.157-2.523 1.173-9.18 19.846-17.242 15.295-6.606 27.542-4.794 29.67-.762 3.029 5.758-6.543 16.463-22.442 18.005-6.055.593-9.24-1.44-10.04-2.202-.84-.796-.957-.83-1.27-.678-.508.237-.195.949 0 1.372.469 1.067 2.422 2.965 5.743 3.913 2.91.83 10.02 1.287 18.615-1.592 9.63-3.235 17.15-12.213 14.942-19.716C60.357.355 45.746-2.151 31.937 2.1c-8.224 2.541-17.13 6.505-23.538 11.705C.781 19.97-.43 25.356.08 27.592 1.855 35.57 14.532 40.77 19.61 44.615c-.254.118-.488.237-.703.339-2.54 1.084-12.208 5.47-14.63 10.112-2.735 5.25.43 9.028 2.54 9.536 6.523 1.575 13.203-1.253 16.817-5.911 3.594-4.658 3.164-10.705 1.504-13.466l-.059-.102 1.993-1.016c1.289-.66 2.559-1.27 3.672-1.796-.625 1.474-1.075 3.219-1.309 5.76-.273 2.98 1.133 6.842 2.989 8.367.82.66 1.797.677 2.402.677 2.149 0 3.126-1.541 4.2-3.387 1.328-2.253 2.5-4.862 2.5-4.862s-1.465 7.064 2.54 7.064c1.465 0 2.93-1.643 3.593-2.49v.017s.04-.051.118-.17c.082-.105.16-.212.234-.321v-.034c.586-.881 1.895-2.897 3.848-6.233 2.52-4.303 4.942-9.69 4.942-9.69s.234 1.322.957 3.49c.43 1.288 1.367 2.693 2.09 4.065a63.221 63.221 0 01-.938 1.118l.02.017a49.908 49.908 0 01-1.543 1.694c-1.992 2.067-4.375 4.421-4.688 5.099-.371.796-.293 1.388.43 1.863.527.339 1.465.406 2.46.339 1.798-.102 3.048-.492 3.673-.729.977-.305 2.09-.762 3.165-1.44 1.953-1.253 3.144-3.031 3.027-5.403-.058-1.304-.547-2.591-1.152-3.81.175-.221.351-.441.527-.678 3.086-3.913 5.47-8.215 5.47-8.215s.234 1.32.956 3.489c.371 1.1 1.114 2.304 1.778 3.49-2.891 2.049-4.708 4.42-5.333 5.978-1.152 2.88-.254 4.184 1.446 4.49.761.135 1.855-.17 2.676-.475a12.913 12.913 0 003.379-1.508c1.953-1.253 3.829-2.998 3.73-5.352-.058-1.084-.39-2.151-.84-3.167 2.462-.881 5.646-1.39 9.69-.966 8.691.88 10.41 5.59 10.078 7.554-.332 1.965-2.148 3.05-2.754 3.388-.605.322-.8.44-.742.678.078.355.351.338.879.27.723-.101 4.57-1.608 4.727-5.233.234-4.659-4.864-9.74-13.908-9.69zM19.025 56.963c-2.871 2.727-6.914 3.76-8.633 2.88-1.856-.932-1.133-4.946 2.402-7.843 2.149-1.761 4.942-3.388 6.778-4.387.41-.22 1.035-.542 1.778-.931a2.2 2.2 0 01.195-.102c.137-.068.293-.152.45-.237 1.308 4.133.058 7.757-2.97 10.62zm20.998-12.382c-.996 2.117-3.106 7.555-4.375 7.25-1.094-.254-1.758-4.37-.215-8.436.781-2.05 2.441-4.488 3.418-5.437 1.582-1.524 3.301-2.032 3.731-1.406.508.814-1.934 6.708-2.559 8.03zm17.326 7.182c-.43.187-.82.322-.996.22-.137-.067.175-.322.175-.322s2.169-2.015 3.028-2.947c.488-.542 1.074-1.168 1.7-1.88v.203c0 2.44-2.696 4.065-3.907 4.726zm13.36-2.642c-.312-.204-.273-.83.782-2.795.41-.78 1.347-2.084 2.969-3.32.195.508.312 1 .293 1.457-.02 3.048-2.52 4.183-4.044 4.658z" fill="#CF649A"/></svg>