<svg width="20" height="20" viewBox="0 0 20 20" fill="none" xmlns="http://www.w3.org/2000/svg">
<path d="M16.6665 3.33325H3.33317C2.4165 3.33325 1.67484 4.08325 1.67484 4.99992L1.6665 14.9999C1.6665 15.9166 2.4165 16.6666 3.33317 16.6666H16.6665C17.5832 16.6666 18.3332 15.9166 18.3332 14.9999V4.99992C18.3332 4.08325 17.5832 3.33325 16.6665 3.33325ZM16.3332 6.87492L10.4415 10.5583C10.1748 10.7249 9.82484 10.7249 9.55817 10.5583L3.6665 6.87492C3.58294 6.82801 3.50977 6.76464 3.45141 6.68863C3.39305 6.61262 3.35072 6.52557 3.32698 6.43273C3.30324 6.33989 3.29859 6.2432 3.3133 6.14851C3.32801 6.05382 3.36178 5.9631 3.41257 5.88184C3.46336 5.80058 3.53011 5.73046 3.60878 5.67575C3.68744 5.62103 3.7764 5.58284 3.87025 5.5635C3.9641 5.54416 4.06091 5.54406 4.1548 5.56321C4.24869 5.58236 4.33772 5.62036 4.4165 5.67492L9.99984 9.16658L15.5832 5.67492C15.662 5.62036 15.751 5.58236 15.8449 5.56321C15.9388 5.54406 16.0356 5.54416 16.1294 5.5635C16.2233 5.58284 16.3122 5.62103 16.3909 5.67575C16.4696 5.73046 16.5363 5.80058 16.5871 5.88184C16.6379 5.9631 16.6717 6.05382 16.6864 6.14851C16.7011 6.2432 16.6964 6.33989 16.6727 6.43273C16.649 6.52557 16.6066 6.61262 16.5483 6.68863C16.4899 6.76464 16.4167 6.82801 16.3332 6.87492V6.87492Z" fill="black"/>
</svg>
