<svg width="30" height="65" viewBox="0 0 30 65" fill="none" xmlns="http://www.w3.org/2000/svg">
<path d="M23.1137 63.0189L23.7496 52.6338L25.5052 49.6962C25.5052 49.6962 21.5093 51.2984 14.8196 51.2984C8.12968 51.2984 4.19436 49.7258 4.19436 49.7258L6.16196 52.9303L6.85802 63.0189C6.85802 64.1004 10.4969 64.9771 14.9859 64.9771C19.4747 64.9771 23.1137 64.1004 23.1137 63.0189V63.0189ZM21.1081 14.5221L22.4426 9.35137L29.8333 1.72868L27.8854 0.102417L20.0609 8.22248L18.5113 14.4001C17.3451 14.3618 16.1783 14.3428 15.0114 14.343C6.77073 14.343 0.090332 15.2636 0.090332 16.3989C0.090332 17.5344 6.77073 18.4548 15.0114 18.4548C23.2519 18.4548 29.9322 17.5344 29.9322 16.3989C29.9322 15.5629 26.3091 14.8433 21.1081 14.5221" fill="#D34A47"/>
<path d="M20.3313 17.4178C20.3313 17.4178 20.0423 17.4813 19.192 17.4849C18.3416 17.4883 17.7377 17.4795 17.4972 17.2647C17.4325 17.2071 17.3971 17.0926 17.3975 17.0151C17.3982 16.8675 17.505 16.7806 17.6412 16.7261L17.7699 16.9241C17.7139 16.943 17.6819 16.9654 17.6818 16.9893C17.6813 17.1014 18.5514 17.1781 19.2169 17.1699C19.8825 17.1618 20.6867 17.1081 20.6874 16.9976C20.6874 16.9642 20.6266 16.9327 20.5208 16.9079L20.649 16.7113C20.8214 16.7638 20.972 16.8652 20.9716 17.0407C20.97 17.339 20.5826 17.3844 20.3313 17.4178" fill="white"/>
<path d="M29.8184 1.74371C30.0042 1.53332 29.7222 0.995172 29.1886 0.541894C28.6547 0.0888467 28.0712 -0.107991 27.885 0.102398C27.6991 0.312787 27.9812 0.850931 28.5151 1.30398C29.0488 1.75714 29.6325 1.95421 29.8184 1.74371ZM22.758 37.6523C22.5828 36.0004 26.4441 33.6081 25.4531 33.5315C23.3199 33.651 22.2582 35.9819 21.1848 38.4232C20.7915 39.318 19.4457 43.1332 18.563 42.6635C17.6806 42.194 19.7071 39.0567 20.2751 37.1935C19.6197 37.6646 17.2161 39.495 16.5967 37.7808C15.6008 38.6098 13.4729 39.059 13.7129 36.8813C13.1831 37.8011 11.9941 39.0854 10.5668 38.5517C8.69247 37.8511 11.6529 31.9987 12.389 32.2939C13.1252 32.5891 12.2404 33.9223 12.0087 34.44C11.4991 35.5793 10.9103 37.0116 11.3036 37.3048C11.9774 37.8071 13.811 35.4045 13.8518 35.3517C14.1947 34.9076 15.1717 32.0022 15.9591 32.3359C16.7466 32.6695 13.995 36.5055 15.0238 37.2668C15.2313 37.4204 16.0803 37.172 16.5967 36.6244C16.9309 36.2701 16.8159 35.4854 17.9298 32.8817C19.0436 30.2781 20.0363 27.0357 20.8002 27.2827C21.5641 27.5296 20.9345 29.1938 20.6604 29.8142C19.3745 32.7259 17.1508 37.5362 18.1995 37.172C19.2482 36.808 19.7943 36.7866 20.8212 35.6087C21.8481 34.4308 21.8008 32.4905 22.4852 32.5318C23.1699 32.5731 23.055 33.1952 22.8889 33.6689C23.5626 32.9133 26.0823 31.3218 26.6906 32.898C27.4111 34.764 23.0857 37.4595 24.1641 37.322C25.2156 37.188 26.9192 36.1304 27.6465 35.1689L29.6485 17.5263C29.6485 17.5263 27.634 19.1605 14.8173 19.1605C2.00049 19.1605 0.194336 17.5603 0.194336 17.5603L1.89879 33.6638C2.8035 31.1433 4.95188 26.0453 8.33829 26.2164C9.87872 26.2943 11.9351 29.2017 10.1736 29.3003C9.428 29.3418 9.35232 27.849 8.4694 27.6298C7.83228 27.4715 6.94525 27.9792 6.37198 28.5293C5.22873 29.6261 2.76988 33.9532 3.09477 36.1104C3.50869 38.8608 6.96669 35.1547 7.55179 34.0544C7.96385 33.2794 8.24222 30.983 9.14342 31.224C10.0447 31.4649 9.06481 33.8348 8.41152 35.93C7.67762 38.2828 7.29181 40.7646 6.37198 40.4791C5.45204 40.1938 6.95052 37.1565 6.89628 36.6244C6.03163 37.4063 4.43872 39.3859 2.40082 38.4061L3.45937 48.4062C3.45937 48.4062 6.27275 50.5851 14.7478 50.5851C23.2229 50.5851 26.1404 48.4402 26.1404 48.4402L27.4548 36.8577C26.3794 37.8842 22.9759 39.7069 22.758 37.6523" fill="#D34A47"/>
</svg>
