<svg width="211" height="65" viewBox="0 0 211 65" fill="none" xmlns="http://www.w3.org/2000/svg">
<path fill-rule="evenodd" clip-rule="evenodd" d="M202.141 4.80408L211 4.87007C211 4.87007 194.529 35.1252 193.184 37.5911C192.747 38.3895 192.083 39.2507 191.747 40.3181C190.896 43.0017 190.023 48.888 190.023 48.888L181.917 48.9424C181.917 48.9424 183.178 42.807 183.126 39.5389C183.08 36.6837 182.005 33.8324 181.402 30.969C180.792 28.0709 179.965 22.3991 179.965 22.3991H188.299L189.448 28.6319L202.141 4.80408Z" fill="#1A1918"/>
<path fill-rule="evenodd" clip-rule="evenodd" d="M185.364 11.1845C186.999 12.5208 188.002 19.8907 188.002 19.8907C188.002 19.8907 179.448 20.0618 174.792 20.0618H170.769L165.884 48.8877H158.413C158.413 48.8877 163.062 17.5613 164.16 11.8818C164.516 10.0434 166.597 10.3585 170.111 10.3585H175.723C179.347 10.3585 183.583 9.73162 185.364 11.1845Z" fill="#1A1918"/>
<path fill-rule="evenodd" clip-rule="evenodd" d="M150.582 25.2238C150.582 25.2238 150.815 23.3733 149.792 21.2309C148.919 19.404 148.111 18.9795 145.812 18.8822C139.321 18.6056 139.447 25.1264 139.447 25.1264L150.582 25.2238ZM157.623 17.7565C158.574 22.4077 156.761 33.3378 156.761 33.3378C156.761 33.3378 147.292 33.1233 142.105 33.3378C140.493 33.4043 138.562 33.1002 138.082 34.117C137.407 35.5424 138.329 37.736 139.111 38.6626C140.01 39.73 141.763 39.851 142.393 39.9598C146.602 40.6846 155.413 40.1468 155.413 40.1468L153.887 49.3084C153.887 49.3084 141.436 50.1541 135.209 48.1398C133.979 47.7428 132.826 46.9405 132.048 45.8027C131.835 45.4914 131.651 45.0669 131.45 44.7006C131.289 44.4081 130.821 43.4463 130.611 42.6863C129.188 37.5485 130.777 27.705 132.335 22.4308C132.516 21.8193 132.743 21.0444 132.982 20.3856C133.28 19.5641 133.533 18.6369 133.772 18.1458C133.932 17.8071 134.131 17.5888 134.298 17.2693C134.49 16.8915 134.714 16.5252 134.921 16.1986C135.496 15.2945 136.148 14.6555 136.933 13.8615C139.527 11.2279 144.223 9.18278 149.864 9.96586C151.988 10.2617 155.195 11.2901 156.761 14.2508C157.18 15.0416 157.387 16.611 157.623 17.7565Z" fill="#1A1918"/>
<path fill-rule="evenodd" clip-rule="evenodd" d="M123.355 10.3235L130.599 10.2653C130.599 10.2653 126.562 36.2278 124.504 48.8879H116.171C110.346 48.8879 105.159 49.8657 102.952 44.2131C100.811 38.725 102.854 29.6992 103.814 23.5677C104.493 19.2283 105.921 10.3587 105.921 10.3587L113.427 10.2653C113.427 10.2653 111.306 24.0742 110.424 30.969C110.108 33.4386 109.456 35.7642 110.136 37.591C110.783 39.3288 111.688 39.4531 114.447 39.5388C115.32 39.5663 118.182 39.5388 118.182 39.5388L123.355 10.3235Z" fill="#1A1918"/>
<path fill-rule="evenodd" clip-rule="evenodd" d="M89.4465 29.0211C90.2051 25.3675 91.3113 21.4059 91.1706 18.1141C91.0184 14.593 88.8404 11.387 87.4351 10.7134C83.2023 8.68749 79.2397 11.5196 77.6649 13.8292C75.6272 16.8213 74.9375 20.3154 74.2162 25.1261C73.6791 28.6978 73.2394 32.4685 74.2162 35.2539C75.946 40.1778 81.3399 39.1027 87.1475 39.1494C88.0096 36.0177 88.7223 32.4999 89.4465 29.0211ZM99.5043 14.6084C100.332 22.7653 97.1567 31.7679 94.9697 39.5971C97.1997 39.8698 99.1538 39.5547 99.2946 39.7802C99.441 40.0728 97.8001 49.1254 97.2281 49.1485C95.4581 49.2112 89.5933 49.2772 87.1475 49.2772C79.1675 49.2772 71.7019 49.9822 67.8946 44.6029C66.3486 42.4176 65.2797 38.6699 65.0208 36.0331C64.5896 31.631 65.13 26.7852 65.8829 22.7889C66.564 19.1815 67.4374 15.777 68.7567 12.6606C72.11 4.72591 77.9436 -1.16367 87.7223 0.195715C89.6189 0.460774 92.343 1.58645 94.0444 2.92219C94.162 3.01623 94.5734 3.46001 94.6679 3.53809C96.9668 5.52109 99.0617 10.2536 99.5043 14.6084Z" fill="#1A1918"/>
<path fill-rule="evenodd" clip-rule="evenodd" d="M64.1952 10.3705C63.7124 13.3505 63.2297 16.728 62.7209 19.6728H54.6748C55.2983 16.4085 55.7754 13.1635 56.3989 10.3237C58.9737 10.3237 61.3676 10.3705 64.1952 10.3705Z" fill="#1A1918"/>
<path fill-rule="evenodd" clip-rule="evenodd" d="M54.3875 22.3993H62.146C61.1318 30.0112 59.1234 42.2891 57.5485 50.8354C56.5627 56.1838 55.9047 60.0871 53.2378 62.9109C52.9993 63.1644 52.8618 63.044 52.6634 63.3008C52.1717 63.936 49.8987 64.6723 48.6403 64.8587C46.5941 65.159 44.281 64.8978 41.7666 64.8279C42.4246 61.5675 43.169 57.6527 43.7552 54.731C49.8845 55.7362 50.0399 47.8829 51.2265 40.3182C51.9133 35.9475 53.994 24.1524 54.3875 22.3993Z" fill="#1A1918"/>
<path fill-rule="evenodd" clip-rule="evenodd" d="M36.2839 42.2662L36.1176 42.8502C33.284 50.329 28.2638 54.918 21.1028 55.1204C17.7552 55.2139 14.5654 54.0497 12.4818 52.7833C7.98494 50.0447 4.20284 44.9657 2.13715 39.5391C-0.825891 31.7601 -1.36016 20.9388 4.8008 12.8562C4.89573 12.8562 4.05355 14.6088 4.14848 14.6088L3.97891 15.3567C-0.460784 34.1984 13.2173 50.345 26.5137 48.4983C29.7092 48.0546 33.7842 45.6822 36.2839 42.2662Z" fill="#21609B"/>
<path fill-rule="evenodd" clip-rule="evenodd" d="M28.238 34.4749C31.5832 34.5063 35.0773 32.3869 37.1462 29.4113C35.3361 35.6402 30.0948 39.6441 23.0657 38.3705C17.1806 37.3031 11.5742 29.2749 10.9965 21.2308C10.5742 15.3764 12.0796 11.8822 14.5599 7.64404C13.6979 9.86075 13.3757 11.5704 13.2954 12.6609C12.353 25.3249 20.7582 34.4089 28.238 34.4749Z" fill="#21609B"/>
<path fill-rule="evenodd" clip-rule="evenodd" d="M36.8108 18.7456C36.2907 20.3624 33.2964 23.4161 31.9744 23.7977C26.7387 25.3094 23.3854 21.9439 21.6293 18.1143C21.368 17.5419 20.8853 15.9801 20.7989 15.5825C20.1177 12.4431 20.4309 7.69457 22.4629 5.23645C21.8508 7.57359 21.7615 10.2885 22.0836 12.0532C22.2788 13.1206 22.8735 14.9831 23.4686 16.155C24.5517 18.2898 25.2385 18.8083 26.6296 19.9417C27.256 20.452 27.9282 20.8612 28.2186 20.9739C29.5375 21.4996 32.322 22.8865 36.8108 18.7456Z" fill="#21609B"/>
</svg>
