<svg width="20" height="20" viewBox="0 0 20 20" fill="none" xmlns="http://www.w3.org/2000/svg">
<path d="M16.6669 9.16591H18.3335C18.3335 4.89091 15.106 1.66675 10.8252 1.66675V3.33341C14.2102 3.33341 16.6669 5.78591 16.6669 9.16591Z" fill="black"/>
<path d="M10.8336 6.66654C12.5861 6.66654 13.3336 7.41404 13.3336 9.16654H15.0002C15.0002 6.47904 13.5211 4.99987 10.8336 4.99987V6.66654ZM13.6852 11.2024C13.5251 11.0568 13.3147 10.9792 13.0984 10.9859C12.8821 10.9926 12.6769 11.0831 12.5261 11.2382L10.5319 13.289C10.0519 13.1974 9.0869 12.8965 8.09357 11.9057C7.10023 10.9115 6.7994 9.94404 6.71023 9.46738L8.7594 7.47237C8.91474 7.32165 9.00535 7.11639 9.01204 6.90005C9.01872 6.6837 8.94097 6.47324 8.79523 6.31321L5.71607 2.92737C5.57027 2.76684 5.36763 2.66946 5.1512 2.65592C4.93476 2.64239 4.72157 2.71376 4.5569 2.85487L2.74857 4.40571C2.60449 4.5503 2.5185 4.74275 2.5069 4.94654C2.4944 5.15487 2.25607 10.0899 6.08273 13.9182C9.42107 17.2557 13.6027 17.4999 14.7544 17.4999C14.9227 17.4999 15.0261 17.4949 15.0536 17.4932C15.2573 17.4818 15.4497 17.3954 15.5936 17.2507L17.1436 15.4415C17.2848 15.277 17.3563 15.0639 17.3429 14.8474C17.3295 14.631 17.2323 14.4283 17.0719 14.2824L13.6852 11.2024V11.2024Z" fill="black"/>
</svg>
