<svg width="100" height="65" viewBox="0 0 100 65" fill="none" xmlns="http://www.w3.org/2000/svg">
<path d="M86.0623 37.3656C82.5659 37.3827 79.5383 38.1108 76.999 39.195C76.0615 37.5859 75.1239 36.1799 74.9678 35.1299C74.792 33.9103 74.5772 33.1649 74.792 31.7084C75.0067 30.2515 75.9833 28.1851 75.9833 28.0157C75.9636 27.8632 75.7683 27.118 73.7566 27.101C71.7449 27.0841 70.0062 27.4398 69.8109 27.8971C69.6156 28.3544 69.2249 29.4046 68.971 30.4887C68.6194 32.0808 64.9472 37.7213 62.8572 40.6854C62.1735 39.5336 61.5875 38.5173 61.4701 37.7041C61.2945 36.4848 61.0795 35.7393 61.2945 34.2828C61.5094 32.826 62.4861 30.7597 62.4861 30.5903C62.4665 30.4378 62.2712 29.6926 60.2595 29.6756C58.2474 29.6587 56.5092 30.0144 56.3138 30.4717C56.1185 30.929 55.9036 32.0131 55.4739 33.0633C55.0635 34.1134 50.1803 43.531 48.9107 45.9871C48.2661 47.2405 47.6998 48.2399 47.2894 48.9174C46.8792 49.5949 47.2699 48.9682 47.2308 49.0359C46.8792 49.6118 46.6839 49.9337 46.6839 49.9337V49.9508C46.4104 50.3742 46.1174 50.7806 45.9805 50.7806C45.8829 50.7806 45.6875 49.6457 46.0196 48.0876C46.7423 44.8183 48.5003 39.7201 48.4809 39.5338C48.4809 39.4491 48.8128 38.5512 47.3478 38.0941C45.9219 37.6367 45.4143 38.3989 45.2969 38.3989C45.1797 38.3989 45.082 38.67 45.082 38.67C45.082 38.67 46.6642 32.9281 42.0544 32.9281C39.1635 32.9281 35.1788 35.6551 33.206 38.145C31.9559 38.7379 29.2994 39.9911 26.4866 41.3294C25.4123 41.8376 24.2989 42.3796 23.2442 42.8708L23.0295 42.6672C17.4431 37.5011 7.11013 33.8424 7.53985 26.8978C7.69612 24.374 8.71183 17.7173 27.3855 9.65472C42.6798 3.04884 54.927 4.86122 57.0559 8.89251C60.0835 14.6515 50.5124 25.3564 34.6127 26.8978C28.5575 27.4906 25.3734 25.458 24.5728 24.6958C23.7329 23.8997 23.6157 23.8658 23.3031 24.0183C22.7953 24.2554 23.1078 24.9668 23.3031 25.3903C23.7719 26.4574 25.7252 28.3545 29.0458 29.303C31.956 30.133 39.0662 30.5903 47.6607 27.7108C57.2905 24.4756 64.8107 15.4984 62.6035 7.99478C60.3572 0.355673 45.7465 -2.15118 31.9367 2.1003C23.7131 4.64103 14.8061 8.60456 8.3993 13.8046C0.78145 19.9701 -0.429593 25.3564 0.0782636 27.5922C1.85596 35.5701 14.5327 40.7701 19.6112 44.6151C19.3573 44.7335 19.1229 44.8521 18.908 44.9538C16.3687 46.0377 6.69994 50.4249 4.27785 55.0658C1.54324 60.3166 4.70757 64.094 6.81713 64.6021C13.3411 66.1774 20.0214 63.3487 23.635 58.6907C27.2289 54.0327 26.7993 47.9858 25.139 45.2249L25.0803 45.1232L27.0726 44.1069C28.362 43.4464 29.6316 42.8366 30.7448 42.3113C30.12 43.7849 29.6705 45.5296 29.4363 48.0703C29.1628 51.0516 30.5692 54.9133 32.4248 56.4378C33.2452 57.0982 34.2219 57.1153 34.8274 57.1153C36.976 57.1153 37.9527 55.5737 39.027 53.7276C40.3552 51.4749 41.5272 48.8664 41.5272 48.8664C41.5272 48.8664 40.0622 55.9296 44.0665 55.9296C45.5315 55.9296 46.9964 54.2866 47.6605 53.4397V53.4566C47.6605 53.4566 47.6996 53.4058 47.7777 53.2873C47.8597 53.1822 47.9379 53.0749 48.0121 52.9656V52.9317C48.5981 52.0509 49.9068 50.0353 51.8601 46.6985C54.3797 42.3962 56.802 37.0099 56.802 37.0099C56.802 37.0099 57.0364 38.331 57.7591 40.4991C58.1886 41.7866 59.1262 43.1923 59.8489 44.5643C59.2629 45.2757 58.9113 45.6824 58.9113 45.6824L58.9309 45.6993C58.4623 46.2413 57.9347 46.8174 57.388 47.3931C55.3956 49.4596 53.0126 51.8141 52.7 52.4917C52.3289 53.2876 52.4071 53.8804 53.1298 54.3549C53.6572 54.6936 54.5947 54.7612 55.5909 54.6936C57.388 54.5918 58.6381 54.2024 59.2631 53.9651C60.2398 53.6602 61.3531 53.2029 62.4275 52.5254C64.3808 51.2721 65.5723 49.4936 65.4551 47.1223C65.3965 45.818 64.9081 44.5307 64.3026 43.3112C64.4784 43.091 64.6544 42.8706 64.83 42.6337C67.9162 38.7208 70.2992 34.4186 70.2992 34.4186C70.2992 34.4186 70.5336 35.7398 71.2564 37.9079C71.6273 39.0089 72.3697 40.2117 73.0339 41.3973C70.143 43.4469 68.3264 45.8182 67.7014 47.3765C66.5489 50.256 67.4474 51.5602 69.1468 51.8651C69.9084 52.0006 71.0024 51.6957 71.8226 51.3909C72.8383 51.1029 74.0689 50.6115 75.202 49.8834C77.1553 48.6299 79.0305 46.8853 78.9328 44.5309C78.8742 43.4469 78.5421 42.3798 78.0929 41.3635C80.554 40.4827 83.7377 39.9745 87.7812 40.398C96.4734 41.2788 98.1923 45.9876 97.8604 47.9524C97.5284 49.9174 95.7118 51.0013 95.1061 51.34C94.5006 51.6619 94.3052 51.7806 94.3638 52.0176C94.442 52.3734 94.7154 52.3563 95.2428 52.2888C95.9655 52.187 99.8135 50.6796 99.9698 47.055C100.204 42.3964 95.1061 37.3149 86.0623 37.3656V37.3656ZM19.0252 56.963C16.1539 59.69 12.1106 60.7233 10.3917 59.8425C8.53603 58.9109 9.25856 54.8966 12.7942 52.0001C14.9428 50.2386 17.7361 48.6125 19.5722 47.6131C19.9823 47.3929 20.6074 47.0713 21.3497 46.6815C21.4669 46.614 21.545 46.5799 21.545 46.5799C21.6817 46.5122 21.838 46.4275 21.9942 46.3428C23.3029 50.4757 22.0528 54.1005 19.0252 56.963V56.963ZM40.0232 44.5812C39.027 46.6985 36.9174 52.1356 35.6478 51.8307C34.5537 51.5767 33.8898 47.4607 35.4327 43.3955C36.214 41.3459 37.8743 38.9069 38.851 37.9582C40.4334 36.4338 42.1521 35.9256 42.582 36.5523C43.0898 37.3656 40.6482 43.26 40.0232 44.5812ZM57.3489 51.763C56.9192 51.9495 56.5285 52.0848 56.3527 51.9834C56.216 51.9156 56.5283 51.6615 56.5283 51.6615C56.5283 51.6615 58.6965 49.6459 59.5559 48.7143C60.0442 48.1724 60.6302 47.5457 61.2553 46.8342V47.0374C61.2555 49.4763 58.5599 51.1024 57.3489 51.763ZM70.7092 49.1206C70.3967 48.9174 70.436 48.2907 71.4906 46.3258C71.9009 45.5467 72.8383 44.2424 74.4596 43.006C74.6549 43.5141 74.7723 44.0051 74.7526 44.4626C74.7332 47.5115 72.233 48.6464 70.7092 49.1206Z" fill="#CF649A"/>
</svg>
